# xmcd
#
# Track frame offsets: 
#        150
#        18147
#        27000
#        38407
#        61174
#        75336
#        87399
#        102189
#        111801
#
# Disc length: 1660 seconds
#
# Revision: 0
# Processed by: cddbd v1.5.2PL0 Copyright (c) Steve Scherf et al.
# Submitted via: ExactAudioCopyFreeDBPlugin 1.0
#
DISCID=54067a09
DTITLE=Molly Gene - Trailer Tracks
DYEAR=2016
DGENRE=Blues
TTITLE0=Amazing Grace
TTITLE1=Guitar Rag
TTITLE2=Lay My Burden Down
TTITLE3=Lousie
TTITLE4=M and O Blues
TTITLE5=Reverie
TTITLE6=Standing in My Doorway Crying
TTITLE7=Tin Roof
TTITLE8=You've Got to Move
EXTD=
EXTT0=
EXTT1=
EXTT2=
EXTT3=
EXTT4=
EXTT5=
EXTT6=
EXTT7=
EXTT8=
PLAYORDER=
